%
M48
M72
T01C0.01200
T02C0.04000
%
T01
X32400Y74000
X14900Y81000
X55400Y141000
X52400Y146500
X49400Y151000
X46400Y155000
X42400Y159000
X38400Y161000
X77900Y159000
X112400Y165000
X117400Y160000
X122900Y156500
X129900Y152000
X133900Y145500
X133400Y135500
X144900Y146500
X168900Y121500
X172400Y125500
X176400Y129000
X189400Y139500
X164900Y116500
X160900Y88000
X156900Y81000
X151400Y74000
X148400Y82000
X128400Y110500
X128900Y115500
X109400Y85000
X170400Y193000
X126400Y196000
X117900Y215500
X116900Y221500
X117400Y226500
X115900Y236500
X144900Y251000
X148900Y248000
X152900Y245000
X155900Y241000
X74900Y253000
X66900Y245000
X26900Y272000
X18900Y270000
X22900Y258000
X16900Y257000
X26900Y282000
X45400Y284000
X45900Y292000
X46400Y297500
X220900Y149500
X228400Y145500
X254400Y122000
X254400Y114000
X254400Y108500
X254900Y103000
X256400Y98000
X257900Y92500
X298900Y115500
X304400Y112000
X310400Y108500
X314400Y103500
X319900Y96500
X319900Y87500
X330400Y73000
X329900Y66000
X307900Y27500
X314400Y23500
X320900Y24000
X261900Y200000
X261900Y206000
X264900Y211000
X261900Y216000
X254400Y219500
X258900Y227000
X254400Y231000
X255900Y239000
X319900Y204500
X324900Y203000
X329900Y201000
X333900Y204000
X339400Y205000
X346900Y230500
X353400Y229500
X332900Y234500
T02
X17400Y26500
X27400Y26500
X53700Y27100
X63700Y27100
X91319Y50663
X91319Y60663
X91319Y70663
X91319Y80663
X91319Y90663
X91319Y100663
X91319Y110663
X91319Y120663
X90986Y140987
X90986Y150987
X90986Y160987
X90986Y170987
X90986Y180987
X90986Y190987
X90986Y200987
X90986Y210987
X90986Y231311
X90986Y241311
X90986Y251311
X90986Y261311
X90986Y271311
X90986Y281311
X90986Y291311
X90986Y301311
X144000Y295600
X144000Y285600
X181643Y160989
X191643Y160989
X201643Y160989
X201643Y150989
X191643Y150989
X181643Y150989
X264900Y65000
X264900Y55000
X261439Y40800
X271439Y40800
X281439Y40800
X281439Y30800
X271439Y30800
X261439Y30800
X251439Y30800
X251439Y40800
X241439Y40800
X231439Y40800
X221439Y40800
X211439Y40800
X201439Y40800
X191439Y40800
X181439Y40800
X171439Y40800
X161439Y40800
X151439Y40800
X141439Y40800
X131439Y40800
X121439Y40800
X111439Y40800
X111439Y30800
X121439Y30800
X131439Y30800
X141439Y30800
X151439Y30800
X161439Y30800
X171439Y30800
X181439Y30800
X191439Y30800
X201439Y30800
X211439Y30800
X221439Y30800
X231439Y30800
X241439Y30800
X281634Y70994
X281634Y80994
X281634Y90994
X281634Y100994
X281634Y110994
X281634Y120994
X281634Y130994
X281634Y140994
X281967Y160985
X281967Y170985
X281967Y180985
X281967Y190985
X281967Y200985
X281967Y210985
X281967Y220985
X281967Y230985
X281300Y246309
X281300Y256309
X281300Y266309
X281300Y276309
X281300Y286309
X281300Y296309
X281300Y306309
X281300Y316309
X281300Y326309
X281300Y336309
X340800Y30100
X350800Y30100
M30
