G75*
%MOIN*%
%OFA0B0*%
%FSLAX25Y25*%
%IPPOS*%
%LPD*%
%AMOC8*
5,1,8,0,0,1.08239X$1,22.5*
%
%ADD10C,0.00500*%
%ADD11R,0.00300X0.00100*%
%ADD12R,0.00600X0.00100*%
%ADD13R,0.00900X0.00100*%
%ADD14R,0.01300X0.00100*%
%ADD15R,0.01600X0.00100*%
%ADD16R,0.02800X0.00100*%
%ADD17R,0.02000X0.00100*%
%ADD18R,0.06400X0.00100*%
%ADD19R,0.02600X0.00100*%
%ADD20R,0.08700X0.00100*%
%ADD21R,0.03700X0.00100*%
%ADD22R,0.11100X0.00100*%
%ADD23R,0.19100X0.00100*%
%ADD24R,0.19300X0.00100*%
%ADD25R,0.19500X0.00100*%
%ADD26R,0.19700X0.00100*%
%ADD27R,0.19800X0.00100*%
%ADD28R,0.19600X0.00100*%
%ADD29R,0.19400X0.00100*%
%ADD30R,0.12400X0.00100*%
%ADD31R,0.02700X0.00100*%
%ADD32R,0.10300X0.00100*%
%ADD33R,0.02300X0.00100*%
%ADD34R,0.08000X0.00100*%
%ADD35R,0.02200X0.00100*%
%ADD36R,0.05400X0.00100*%
%ADD37R,0.00800X0.00100*%
%ADD38R,0.01900X0.00100*%
%ADD39R,0.01800X0.00100*%
%ADD40R,0.01700X0.00100*%
%ADD41R,0.02900X0.00100*%
%ADD42R,0.03000X0.00100*%
%ADD43R,0.01500X0.00100*%
%ADD44R,0.02100X0.00100*%
%ADD45R,0.03300X0.00100*%
%ADD46R,0.02500X0.00100*%
%ADD47R,0.03800X0.00100*%
%ADD48R,0.03200X0.00100*%
%ADD49R,0.04300X0.00100*%
%ADD50R,0.03100X0.00100*%
%ADD51R,0.03400X0.00100*%
%ADD52R,0.04600X0.00100*%
%ADD53R,0.04900X0.00100*%
%ADD54R,0.03600X0.00100*%
%ADD55R,0.04000X0.00100*%
%ADD56R,0.05200X0.00100*%
%ADD57R,0.04200X0.00100*%
%ADD58R,0.08500X0.00100*%
%ADD59R,0.05800X0.00100*%
%ADD60R,0.08600X0.00100*%
%ADD61R,0.06000X0.00100*%
%ADD62R,0.06900X0.00100*%
%ADD63R,0.04100X0.00100*%
%ADD64R,0.06700X0.00100*%
%ADD65R,0.03900X0.00100*%
%ADD66R,0.07900X0.00100*%
%ADD67R,0.07600X0.00100*%
%ADD68R,0.01400X0.00100*%
%ADD69R,0.03500X0.00100*%
%ADD70R,0.02400X0.00100*%
%ADD71R,0.01000X0.00100*%
%ADD72R,0.05100X0.00100*%
%ADD73R,0.05000X0.00100*%
%ADD74R,0.04800X0.00100*%
%ADD75R,0.00700X0.00100*%
%ADD76R,0.00400X0.00100*%
%ADD77R,0.01100X0.00100*%
%ADD78R,0.01200X0.00100*%
%ADD79R,0.04500X0.00100*%
%ADD80C,0.00600*%
%ADD81C,0.00800*%
D10*
X0010052Y0009850D02*
X0011855Y0009850D01*
X0012757Y0010752D01*
X0012757Y0014358D01*
X0011855Y0015260D01*
X0010052Y0015260D01*
X0009150Y0014358D01*
X0009150Y0013457D01*
X0010052Y0012555D01*
X0012757Y0012555D01*
X0014588Y0011653D02*
X0016391Y0009850D01*
X0018194Y0011653D01*
X0018194Y0015260D01*
X0014588Y0015260D02*
X0014588Y0011653D01*
X0010052Y0009850D02*
X0009150Y0010752D01*
X0025463Y0010752D02*
X0026365Y0009850D01*
X0028168Y0009850D01*
X0029070Y0010752D01*
X0029070Y0012555D01*
X0027266Y0012555D01*
X0025463Y0014358D02*
X0025463Y0010752D01*
X0025463Y0014358D02*
X0026365Y0015260D01*
X0028168Y0015260D01*
X0029070Y0014358D01*
X0030901Y0015260D02*
X0034508Y0009850D01*
X0034508Y0015260D01*
X0036339Y0015260D02*
X0039044Y0015260D01*
X0039945Y0014358D01*
X0039945Y0010752D01*
X0039044Y0009850D01*
X0036339Y0009850D01*
X0036339Y0015260D01*
X0030901Y0015260D02*
X0030901Y0009850D01*
X0044150Y0010752D02*
X0045052Y0009850D01*
X0046855Y0009850D01*
X0047757Y0010752D01*
X0047757Y0014358D01*
X0046855Y0015260D01*
X0045052Y0015260D01*
X0044150Y0014358D01*
X0044150Y0013457D01*
X0045052Y0012555D01*
X0047757Y0012555D01*
X0049588Y0011653D02*
X0051391Y0009850D01*
X0053194Y0011653D01*
X0053194Y0015260D01*
X0049588Y0015260D02*
X0049588Y0011653D01*
X0060463Y0010752D02*
X0061365Y0009850D01*
X0063168Y0009850D01*
X0064070Y0010752D01*
X0064070Y0012555D01*
X0062266Y0012555D01*
X0060463Y0014358D02*
X0060463Y0010752D01*
X0060463Y0014358D02*
X0061365Y0015260D01*
X0063168Y0015260D01*
X0064070Y0014358D01*
X0065901Y0015260D02*
X0069508Y0009850D01*
X0069508Y0015260D01*
X0071339Y0015260D02*
X0074044Y0015260D01*
X0074945Y0014358D01*
X0074945Y0010752D01*
X0074044Y0009850D01*
X0071339Y0009850D01*
X0071339Y0015260D01*
X0065901Y0015260D02*
X0065901Y0009850D01*
X0118745Y0013875D02*
X0121450Y0013875D01*
X0120549Y0015678D01*
X0120549Y0016580D01*
X0121450Y0017481D01*
X0123254Y0017481D01*
X0124156Y0016580D01*
X0124156Y0014776D01*
X0123254Y0013875D01*
X0128745Y0013875D02*
X0128745Y0017481D01*
X0130549Y0016580D02*
X0131450Y0017481D01*
X0133254Y0017481D01*
X0134156Y0016580D01*
X0134156Y0014776D01*
X0133254Y0013875D01*
X0131450Y0013875D02*
X0130549Y0015678D01*
X0130549Y0016580D01*
X0130549Y0019312D02*
X0128745Y0021116D01*
X0134156Y0021116D01*
X0134156Y0022919D02*
X0134156Y0019312D01*
X0138745Y0017580D02*
X0141450Y0014875D01*
X0141450Y0018481D01*
X0140549Y0020312D02*
X0141450Y0021214D01*
X0141450Y0023919D01*
X0139647Y0023919D02*
X0143254Y0023919D01*
X0144156Y0023017D01*
X0144156Y0021214D01*
X0143254Y0020312D01*
X0140549Y0020312D02*
X0139647Y0020312D01*
X0138745Y0021214D01*
X0138745Y0023017D01*
X0139647Y0023919D01*
X0138745Y0017580D02*
X0144156Y0017580D01*
X0131450Y0013875D02*
X0128745Y0013875D01*
X0123254Y0019312D02*
X0124156Y0020214D01*
X0124156Y0022017D01*
X0123254Y0022919D01*
X0122352Y0022919D01*
X0121450Y0022017D01*
X0121450Y0021116D01*
X0121450Y0022017D02*
X0120549Y0022919D01*
X0119647Y0022919D01*
X0118745Y0022017D01*
X0118745Y0020214D01*
X0119647Y0019312D01*
X0118745Y0017481D02*
X0118745Y0013875D01*
X0157745Y0017580D02*
X0160450Y0014875D01*
X0160450Y0018481D01*
X0162254Y0020312D02*
X0163156Y0020312D01*
X0162254Y0020312D02*
X0158647Y0023919D01*
X0157745Y0023919D01*
X0157745Y0020312D01*
X0157745Y0017580D02*
X0163156Y0017580D01*
X0013235Y0141922D02*
X0007825Y0145529D01*
X0009628Y0147360D02*
X0007825Y0149164D01*
X0013235Y0149164D01*
X0013235Y0150967D02*
X0013235Y0147360D01*
X0013235Y0145529D02*
X0007825Y0141922D01*
X0099745Y0196678D02*
X0101549Y0198481D01*
X0105156Y0198481D01*
X0105156Y0200312D02*
X0105156Y0203919D01*
X0105156Y0202116D02*
X0099745Y0202116D01*
X0101549Y0200312D01*
X0102450Y0198481D02*
X0102450Y0194875D01*
X0101549Y0194875D02*
X0099745Y0196678D01*
X0101549Y0194875D02*
X0105156Y0194875D01*
X0105156Y0210875D02*
X0101549Y0210875D01*
X0099745Y0212678D01*
X0101549Y0214481D01*
X0105156Y0214481D01*
X0104254Y0216312D02*
X0100647Y0216312D01*
X0099745Y0217214D01*
X0099745Y0219017D01*
X0100647Y0219919D01*
X0104254Y0216312D01*
X0105156Y0217214D01*
X0105156Y0219017D01*
X0104254Y0219919D01*
X0100647Y0219919D01*
X0102450Y0214481D02*
X0102450Y0210875D01*
X0165953Y0294850D02*
X0165953Y0297555D01*
X0167757Y0299358D01*
X0167757Y0300260D01*
X0165953Y0297555D02*
X0164150Y0299358D01*
X0164150Y0300260D01*
X0164150Y0303708D02*
X0167757Y0307315D01*
X0167757Y0308217D01*
X0166855Y0309118D01*
X0165052Y0309118D01*
X0164150Y0308217D01*
X0165052Y0312567D02*
X0164150Y0313468D01*
X0164150Y0315272D01*
X0165052Y0316173D01*
X0166855Y0316173D01*
X0167757Y0315272D01*
X0167757Y0313468D01*
X0166855Y0312567D01*
X0165052Y0312567D01*
X0169588Y0312567D02*
X0171391Y0312567D01*
X0170489Y0312567D02*
X0170489Y0317977D01*
X0169588Y0317977D01*
X0173213Y0315272D02*
X0174115Y0316173D01*
X0175918Y0316173D01*
X0176820Y0315272D01*
X0176820Y0314370D01*
X0173213Y0314370D01*
X0173213Y0313468D02*
X0173213Y0315272D01*
X0173213Y0313468D02*
X0174115Y0312567D01*
X0175918Y0312567D01*
X0178651Y0313468D02*
X0178651Y0315272D01*
X0179552Y0316173D01*
X0182257Y0316173D01*
X0182257Y0317977D02*
X0182257Y0312567D01*
X0179552Y0312567D01*
X0178651Y0313468D01*
X0184088Y0311665D02*
X0187695Y0311665D01*
X0189526Y0313468D02*
X0190428Y0314370D01*
X0193133Y0314370D01*
X0193133Y0315272D02*
X0193133Y0312567D01*
X0190428Y0312567D01*
X0189526Y0313468D01*
X0190428Y0316173D02*
X0192231Y0316173D01*
X0193133Y0315272D01*
X0194964Y0316173D02*
X0194964Y0312567D01*
X0194964Y0314370D02*
X0196767Y0316173D01*
X0197669Y0316173D01*
X0199495Y0316173D02*
X0199495Y0312567D01*
X0199495Y0314370D02*
X0201298Y0316173D01*
X0202200Y0316173D01*
X0204928Y0316173D02*
X0206732Y0316173D01*
X0207633Y0315272D01*
X0207633Y0312567D01*
X0204928Y0312567D01*
X0204027Y0313468D01*
X0204928Y0314370D01*
X0207633Y0314370D01*
X0209464Y0313468D02*
X0210366Y0312567D01*
X0213071Y0312567D01*
X0213071Y0311665D02*
X0212169Y0310763D01*
X0211268Y0310763D01*
X0213071Y0311665D02*
X0213071Y0316173D01*
X0209464Y0316173D02*
X0209464Y0313468D01*
X0214902Y0311665D02*
X0218509Y0311665D01*
X0216696Y0309118D02*
X0214893Y0308217D01*
X0213089Y0306413D01*
X0215794Y0306413D01*
X0216696Y0305512D01*
X0216696Y0304610D01*
X0215794Y0303708D01*
X0213991Y0303708D01*
X0213089Y0304610D01*
X0213089Y0306413D01*
X0211258Y0303708D02*
X0207652Y0303708D01*
X0209455Y0303708D02*
X0209455Y0309118D01*
X0207652Y0307315D01*
X0205821Y0302807D02*
X0202214Y0302807D01*
X0200383Y0304610D02*
X0200383Y0305512D01*
X0199481Y0306413D01*
X0196776Y0306413D01*
X0196776Y0304610D01*
X0197678Y0303708D01*
X0199481Y0303708D01*
X0200383Y0304610D01*
X0198580Y0308217D02*
X0196776Y0306413D01*
X0198580Y0308217D02*
X0200383Y0309118D01*
X0194945Y0308217D02*
X0194945Y0304610D01*
X0194044Y0303708D01*
X0192240Y0303708D01*
X0191339Y0304610D01*
X0194945Y0308217D01*
X0194044Y0309118D01*
X0192240Y0309118D01*
X0191339Y0308217D01*
X0191339Y0304610D01*
X0189508Y0302807D02*
X0185901Y0302807D01*
X0180463Y0303708D02*
X0180463Y0304610D01*
X0184070Y0308217D01*
X0184070Y0309118D01*
X0180463Y0309118D01*
X0176829Y0309118D02*
X0176829Y0303708D01*
X0178632Y0303708D02*
X0175025Y0303708D01*
X0173194Y0304610D02*
X0173194Y0308217D01*
X0169588Y0304610D01*
X0170489Y0303708D01*
X0172293Y0303708D01*
X0173194Y0304610D01*
X0175025Y0307315D02*
X0176829Y0309118D01*
X0173194Y0308217D02*
X0172293Y0309118D01*
X0170489Y0309118D01*
X0169588Y0308217D01*
X0169588Y0304610D01*
X0167757Y0303708D02*
X0164150Y0303708D01*
X0170489Y0298457D02*
X0172293Y0298457D01*
X0173194Y0297555D01*
X0173194Y0294850D01*
X0170489Y0294850D01*
X0169588Y0295752D01*
X0170489Y0296653D01*
X0173194Y0296653D01*
X0175025Y0297555D02*
X0175927Y0298457D01*
X0178632Y0298457D01*
X0177730Y0296653D02*
X0178632Y0295752D01*
X0177730Y0294850D01*
X0175025Y0294850D01*
X0175927Y0296653D02*
X0175025Y0297555D01*
X0175927Y0296653D02*
X0177730Y0296653D01*
X0180463Y0297555D02*
X0181365Y0298457D01*
X0184070Y0298457D01*
X0183168Y0296653D02*
X0181365Y0296653D01*
X0180463Y0297555D01*
X0180463Y0294850D02*
X0183168Y0294850D01*
X0184070Y0295752D01*
X0183168Y0296653D01*
X0185901Y0296653D02*
X0189508Y0296653D01*
X0189508Y0297555D01*
X0188606Y0298457D01*
X0186803Y0298457D01*
X0185901Y0297555D01*
X0185901Y0295752D01*
X0186803Y0294850D01*
X0188606Y0294850D01*
X0191339Y0294850D02*
X0191339Y0298457D01*
X0193142Y0298457D02*
X0194044Y0298457D01*
X0193142Y0298457D02*
X0191339Y0296653D01*
X0201308Y0296653D02*
X0204914Y0300260D01*
X0206745Y0300260D02*
X0206745Y0294850D01*
X0204914Y0294850D02*
X0202209Y0297555D01*
X0201308Y0300260D02*
X0201308Y0294850D01*
X0206745Y0297555D02*
X0207647Y0298457D01*
X0209450Y0298457D01*
X0210352Y0297555D01*
X0210352Y0294850D01*
X0212183Y0295752D02*
X0213085Y0296653D01*
X0215790Y0296653D01*
X0215790Y0297555D02*
X0215790Y0294850D01*
X0213085Y0294850D01*
X0212183Y0295752D01*
X0213085Y0298457D02*
X0214888Y0298457D01*
X0215790Y0297555D01*
X0217621Y0298457D02*
X0220326Y0298457D01*
X0221228Y0297555D01*
X0221228Y0294850D01*
X0217621Y0294850D02*
X0217621Y0298457D01*
X0222143Y0312567D02*
X0223946Y0316173D01*
X0225777Y0316173D02*
X0227581Y0317977D01*
X0227581Y0312567D01*
X0229384Y0312567D02*
X0225777Y0312567D01*
X0222143Y0312567D02*
X0220340Y0316173D01*
X0340863Y0209088D02*
X0340863Y0207285D01*
X0341764Y0206383D01*
X0345371Y0206383D01*
X0341764Y0209990D01*
X0345371Y0209990D01*
X0346273Y0209088D01*
X0346273Y0207285D01*
X0345371Y0206383D01*
X0345371Y0204552D02*
X0346273Y0203650D01*
X0346273Y0201847D01*
X0345371Y0200945D01*
X0341764Y0204552D01*
X0345371Y0204552D01*
X0341764Y0204552D02*
X0340863Y0203650D01*
X0340863Y0201847D01*
X0341764Y0200945D01*
X0345371Y0200945D01*
X0346273Y0199114D02*
X0346273Y0195508D01*
X0342666Y0199114D01*
X0341764Y0199114D01*
X0340863Y0198213D01*
X0340863Y0196409D01*
X0341764Y0195508D01*
X0341764Y0193677D02*
X0342666Y0193677D01*
X0343568Y0192775D01*
X0344469Y0193677D01*
X0345371Y0193677D01*
X0346273Y0192775D01*
X0346273Y0190972D01*
X0345371Y0190070D01*
X0345371Y0188239D02*
X0346273Y0187337D01*
X0346273Y0185534D01*
X0345371Y0184632D01*
X0341764Y0188239D01*
X0345371Y0188239D01*
X0341764Y0188239D02*
X0340863Y0187337D01*
X0340863Y0185534D01*
X0341764Y0184632D01*
X0345371Y0184632D01*
X0345371Y0182801D02*
X0346273Y0181900D01*
X0346273Y0180096D01*
X0345371Y0179195D01*
X0344469Y0179195D01*
X0343568Y0180096D01*
X0343568Y0181900D01*
X0344469Y0182801D01*
X0345371Y0182801D01*
X0343568Y0181900D02*
X0342666Y0182801D01*
X0341764Y0182801D01*
X0340863Y0181900D01*
X0340863Y0180096D01*
X0341764Y0179195D01*
X0342666Y0179195D01*
X0343568Y0180096D01*
X0343568Y0177364D02*
X0343568Y0173757D01*
X0340863Y0176462D01*
X0346273Y0176462D01*
X0345371Y0171926D02*
X0346273Y0171024D01*
X0346273Y0169221D01*
X0345371Y0168319D01*
X0345371Y0166488D02*
X0346273Y0165586D01*
X0346273Y0163783D01*
X0345371Y0162881D01*
X0341764Y0166488D01*
X0345371Y0166488D01*
X0345371Y0162881D02*
X0341764Y0162881D01*
X0340863Y0163783D01*
X0340863Y0165586D01*
X0341764Y0166488D01*
X0341764Y0168319D02*
X0340863Y0169221D01*
X0340863Y0171024D01*
X0341764Y0171926D01*
X0342666Y0171926D01*
X0343568Y0171024D01*
X0344469Y0171926D01*
X0345371Y0171926D01*
X0343568Y0171024D02*
X0343568Y0170122D01*
X0343568Y0161050D02*
X0345371Y0161050D01*
X0346273Y0160149D01*
X0346273Y0158345D01*
X0345371Y0157444D01*
X0343568Y0157444D02*
X0342666Y0159247D01*
X0342666Y0160149D01*
X0343568Y0161050D01*
X0340863Y0161050D02*
X0340863Y0157444D01*
X0343568Y0157444D01*
X0341764Y0190070D02*
X0340863Y0190972D01*
X0340863Y0192775D01*
X0341764Y0193677D01*
X0343568Y0192775D02*
X0343568Y0191873D01*
X0358267Y0205670D02*
X0363678Y0209277D01*
X0363678Y0211108D02*
X0360071Y0214714D01*
X0359169Y0214714D01*
X0358267Y0213813D01*
X0358267Y0212009D01*
X0359169Y0211108D01*
X0358267Y0209277D02*
X0363678Y0205670D01*
X0363678Y0211108D02*
X0363678Y0214714D01*
X0341764Y0209990D02*
X0340863Y0209088D01*
X0339588Y0020260D02*
X0339588Y0016653D01*
X0341391Y0014850D01*
X0343194Y0016653D01*
X0343194Y0020260D01*
X0337757Y0019358D02*
X0337757Y0015752D01*
X0336855Y0014850D01*
X0335052Y0014850D01*
X0334150Y0015752D01*
X0335052Y0017555D02*
X0334150Y0018457D01*
X0334150Y0019358D01*
X0335052Y0020260D01*
X0336855Y0020260D01*
X0337757Y0019358D01*
X0337757Y0017555D02*
X0335052Y0017555D01*
X0350463Y0015752D02*
X0351365Y0014850D01*
X0353168Y0014850D01*
X0354070Y0015752D01*
X0354070Y0017555D01*
X0352266Y0017555D01*
X0350463Y0019358D02*
X0350463Y0015752D01*
X0350463Y0019358D02*
X0351365Y0020260D01*
X0353168Y0020260D01*
X0354070Y0019358D01*
X0355901Y0020260D02*
X0359508Y0014850D01*
X0359508Y0020260D01*
X0361339Y0020260D02*
X0361339Y0014850D01*
X0364044Y0014850D01*
X0364945Y0015752D01*
X0364945Y0019358D01*
X0364044Y0020260D01*
X0361339Y0020260D01*
X0355901Y0020260D02*
X0355901Y0014850D01*
D11*
X0176800Y0326800D03*
X0186400Y0330500D03*
D12*
X0176950Y0326900D03*
X0199950Y0341200D03*
X0200150Y0341700D03*
X0200250Y0342000D03*
X0200250Y0344000D03*
D13*
X0198600Y0338500D03*
X0198400Y0338200D03*
X0198300Y0338000D03*
X0198200Y0337900D03*
X0198200Y0337800D03*
X0198100Y0337700D03*
X0198000Y0337600D03*
X0198000Y0337500D03*
X0197900Y0337400D03*
X0197800Y0337300D03*
X0197800Y0337200D03*
X0197700Y0337100D03*
X0197600Y0337000D03*
X0197600Y0336900D03*
X0197500Y0336800D03*
X0197400Y0336700D03*
X0197400Y0336600D03*
X0197300Y0336500D03*
X0197200Y0336400D03*
X0197100Y0336300D03*
X0197100Y0336200D03*
X0197000Y0336100D03*
X0196900Y0336000D03*
X0189100Y0343400D03*
X0189200Y0343600D03*
X0189400Y0344400D03*
X0177200Y0327000D03*
D14*
X0177400Y0327100D03*
X0200100Y0343800D03*
D15*
X0188250Y0345800D03*
X0189350Y0337400D03*
X0192750Y0331700D03*
X0190250Y0330600D03*
X0183350Y0331700D03*
X0177650Y0327200D03*
D16*
X0180950Y0330700D03*
X0185550Y0332900D03*
X0192450Y0327200D03*
X0196650Y0330800D03*
X0195150Y0334800D03*
X0195150Y0334900D03*
D17*
X0195350Y0337700D03*
X0195450Y0337900D03*
X0195450Y0338000D03*
X0195550Y0338200D03*
X0195550Y0338300D03*
X0195650Y0338400D03*
X0195650Y0338500D03*
X0195750Y0338600D03*
X0195750Y0338700D03*
X0195850Y0338900D03*
X0195950Y0339100D03*
X0196050Y0339300D03*
X0196150Y0339500D03*
X0196250Y0339700D03*
X0196550Y0340200D03*
X0197850Y0341900D03*
X0197950Y0342000D03*
X0198050Y0342100D03*
X0198150Y0342200D03*
X0198250Y0342300D03*
X0191450Y0337300D03*
X0191450Y0337200D03*
X0191050Y0336300D03*
X0191050Y0336200D03*
X0191050Y0336100D03*
X0190250Y0334100D03*
X0190050Y0333600D03*
X0189950Y0333400D03*
X0189950Y0333300D03*
X0189850Y0333200D03*
X0189850Y0333100D03*
X0189750Y0332900D03*
X0189250Y0337300D03*
X0187350Y0341800D03*
X0198250Y0329500D03*
X0177950Y0327300D03*
D18*
X0191750Y0327300D03*
D19*
X0189450Y0332200D03*
X0185650Y0333200D03*
X0185650Y0333300D03*
X0178350Y0327400D03*
X0183450Y0343100D03*
X0183550Y0343200D03*
X0183650Y0343300D03*
X0183750Y0343400D03*
X0195050Y0334600D03*
X0194950Y0332800D03*
X0195650Y0331600D03*
X0195750Y0331500D03*
X0195850Y0331400D03*
X0195950Y0331300D03*
X0196050Y0331200D03*
X0196150Y0331100D03*
X0198150Y0330200D03*
X0199550Y0343100D03*
D20*
X0191100Y0327400D03*
D21*
X0190600Y0331100D03*
X0179600Y0332000D03*
X0179000Y0327500D03*
D22*
X0190400Y0327500D03*
D23*
X0189400Y0329100D03*
X0186800Y0327600D03*
D24*
X0187000Y0327700D03*
X0189200Y0329000D03*
D25*
X0187200Y0327800D03*
D26*
X0187400Y0327900D03*
X0187600Y0328000D03*
X0188500Y0328600D03*
X0188700Y0328700D03*
D27*
X0188350Y0328500D03*
X0188250Y0328400D03*
X0188050Y0328300D03*
X0187950Y0328200D03*
X0187750Y0328100D03*
D28*
X0188850Y0328800D03*
D29*
X0189050Y0328900D03*
D30*
X0186450Y0329200D03*
D31*
X0185600Y0333000D03*
X0185600Y0333100D03*
X0189400Y0332100D03*
X0190400Y0330800D03*
X0194900Y0332700D03*
X0195100Y0334700D03*
X0196300Y0331000D03*
X0196500Y0330900D03*
X0197700Y0329200D03*
X0199500Y0343000D03*
X0186400Y0345000D03*
X0183300Y0343000D03*
X0183200Y0342900D03*
X0183100Y0342800D03*
X0183000Y0342700D03*
X0182900Y0342600D03*
X0182800Y0342500D03*
X0182700Y0342400D03*
D32*
X0185800Y0329300D03*
D33*
X0186000Y0334200D03*
X0186100Y0334400D03*
X0186200Y0334600D03*
X0186300Y0334800D03*
X0188000Y0336600D03*
X0188200Y0336700D03*
X0189600Y0332500D03*
X0190300Y0330700D03*
X0194900Y0333200D03*
X0194900Y0333300D03*
X0194900Y0333400D03*
X0194900Y0333500D03*
X0194900Y0333600D03*
X0194900Y0333700D03*
X0194900Y0333800D03*
X0194900Y0333900D03*
X0194900Y0334000D03*
X0194900Y0334100D03*
X0194900Y0334200D03*
X0198000Y0329300D03*
X0199700Y0343300D03*
X0187900Y0342500D03*
X0187600Y0342200D03*
X0187500Y0342100D03*
X0185300Y0344500D03*
X0185100Y0344400D03*
X0184800Y0344200D03*
X0188100Y0345700D03*
D34*
X0185150Y0329400D03*
D35*
X0189650Y0332600D03*
X0189650Y0332700D03*
X0186550Y0335100D03*
X0186550Y0335200D03*
X0186650Y0335300D03*
X0186750Y0335400D03*
X0186850Y0335600D03*
X0186950Y0335700D03*
X0187050Y0335800D03*
X0187150Y0335900D03*
X0187250Y0336000D03*
X0187350Y0336100D03*
X0187450Y0336200D03*
X0187550Y0336300D03*
X0187850Y0336500D03*
X0186450Y0335000D03*
X0186350Y0334900D03*
X0186250Y0334700D03*
X0186150Y0334500D03*
X0187450Y0342000D03*
X0188050Y0342600D03*
X0195150Y0337000D03*
X0195150Y0336900D03*
X0195050Y0336600D03*
X0195050Y0336500D03*
X0195050Y0336400D03*
X0195050Y0336300D03*
X0195050Y0336200D03*
X0194950Y0336100D03*
X0194950Y0336000D03*
X0194950Y0335900D03*
X0194950Y0335800D03*
X0194950Y0335700D03*
X0198150Y0329400D03*
X0198550Y0342500D03*
X0199750Y0343400D03*
D36*
X0184550Y0329500D03*
X0181050Y0331400D03*
D37*
X0184150Y0329600D03*
X0189150Y0343500D03*
X0189250Y0343700D03*
X0189250Y0343800D03*
X0189350Y0343900D03*
X0189350Y0344000D03*
X0189350Y0344100D03*
X0189350Y0344200D03*
X0189350Y0344300D03*
X0198950Y0339200D03*
X0198950Y0339100D03*
X0198850Y0339000D03*
X0198850Y0338900D03*
X0198750Y0338800D03*
X0198750Y0338700D03*
X0198650Y0338600D03*
X0198550Y0338400D03*
X0198450Y0338300D03*
X0198350Y0338100D03*
X0199050Y0339300D03*
X0199150Y0339500D03*
X0199250Y0339700D03*
X0199350Y0339900D03*
X0199450Y0340100D03*
X0199550Y0340300D03*
X0199650Y0340500D03*
X0200350Y0342400D03*
X0200350Y0342500D03*
D38*
X0199800Y0343500D03*
X0197800Y0341800D03*
X0197700Y0341700D03*
X0197600Y0341600D03*
X0197500Y0341500D03*
X0197400Y0341400D03*
X0197300Y0341300D03*
X0197200Y0341100D03*
X0197100Y0341000D03*
X0197000Y0340900D03*
X0196900Y0340700D03*
X0196800Y0340600D03*
X0196700Y0340500D03*
X0196700Y0340400D03*
X0196600Y0340300D03*
X0196500Y0340100D03*
X0196400Y0340000D03*
X0196400Y0339900D03*
X0196300Y0339800D03*
X0196200Y0339600D03*
X0196100Y0339400D03*
X0196000Y0339200D03*
X0195900Y0339000D03*
X0195800Y0338800D03*
X0191500Y0337500D03*
X0191500Y0337400D03*
X0191000Y0336000D03*
X0191000Y0335900D03*
X0190900Y0335800D03*
X0190900Y0335700D03*
X0190800Y0335500D03*
X0190800Y0335400D03*
X0190700Y0335200D03*
X0190600Y0335000D03*
X0190600Y0334900D03*
X0190500Y0334800D03*
X0190500Y0334700D03*
X0190500Y0334600D03*
X0190400Y0334500D03*
X0190400Y0334400D03*
X0190300Y0334300D03*
X0190300Y0334200D03*
X0190200Y0334000D03*
X0190200Y0333900D03*
X0190100Y0333800D03*
X0190100Y0333700D03*
X0190000Y0333500D03*
X0198500Y0330100D03*
X0198500Y0329700D03*
X0198400Y0329600D03*
X0187300Y0341700D03*
X0188200Y0342700D03*
X0180900Y0330600D03*
D39*
X0190650Y0335100D03*
X0190750Y0335300D03*
X0190850Y0335600D03*
X0192450Y0331600D03*
X0198550Y0330000D03*
X0198550Y0329800D03*
X0196950Y0340800D03*
X0197250Y0341200D03*
D40*
X0199900Y0343600D03*
X0188400Y0342800D03*
X0187200Y0341600D03*
X0198600Y0329900D03*
D41*
X0197900Y0330300D03*
X0196900Y0330700D03*
X0194800Y0332600D03*
X0195200Y0335000D03*
X0189300Y0332000D03*
X0186500Y0330900D03*
X0185500Y0332700D03*
X0185500Y0332800D03*
X0182300Y0342000D03*
X0182400Y0342100D03*
X0182500Y0342200D03*
X0182600Y0342300D03*
X0188000Y0345600D03*
X0199300Y0342800D03*
X0199400Y0342900D03*
D42*
X0199250Y0342700D03*
X0195250Y0335100D03*
X0197150Y0330600D03*
X0197350Y0330500D03*
X0197650Y0330400D03*
X0185450Y0332600D03*
X0181650Y0341200D03*
X0181750Y0341300D03*
X0181850Y0341400D03*
X0181850Y0341500D03*
X0181950Y0341600D03*
X0182050Y0341700D03*
X0182150Y0341800D03*
X0182250Y0341900D03*
D43*
X0192900Y0331800D03*
X0193100Y0331900D03*
X0186500Y0330600D03*
X0200000Y0343700D03*
D44*
X0198400Y0342400D03*
X0195500Y0338100D03*
X0195400Y0337800D03*
X0195300Y0337600D03*
X0195300Y0337500D03*
X0195300Y0337400D03*
X0195200Y0337300D03*
X0195200Y0337200D03*
X0195200Y0337100D03*
X0195100Y0336800D03*
X0195100Y0336700D03*
X0191100Y0336600D03*
X0191100Y0336500D03*
X0191100Y0336400D03*
X0187700Y0336400D03*
X0186800Y0335500D03*
X0189800Y0333000D03*
X0189700Y0332800D03*
X0186500Y0330700D03*
X0187400Y0341900D03*
D45*
X0187900Y0345500D03*
X0180700Y0339900D03*
X0180500Y0339600D03*
X0180400Y0339400D03*
X0180300Y0339300D03*
X0180300Y0339200D03*
X0180200Y0339100D03*
X0180200Y0339000D03*
X0180100Y0338900D03*
X0180100Y0338800D03*
X0180000Y0338700D03*
X0179900Y0338500D03*
X0179800Y0338300D03*
X0179700Y0338100D03*
X0179700Y0338000D03*
X0179600Y0337900D03*
X0179600Y0337800D03*
X0179500Y0337600D03*
X0179400Y0337300D03*
X0179300Y0337000D03*
X0179200Y0336700D03*
X0179100Y0336300D03*
X0179000Y0335900D03*
X0178900Y0335200D03*
X0178900Y0335100D03*
X0178900Y0333600D03*
X0181000Y0330800D03*
D46*
X0185700Y0333400D03*
X0185700Y0333500D03*
X0185800Y0333600D03*
X0185800Y0333700D03*
X0186500Y0330800D03*
X0195400Y0331900D03*
X0195400Y0332000D03*
X0195500Y0331800D03*
X0195600Y0331700D03*
X0195000Y0334400D03*
X0195000Y0334500D03*
X0199600Y0343200D03*
X0186100Y0344900D03*
X0184100Y0343700D03*
X0184000Y0343600D03*
X0183900Y0343500D03*
D47*
X0185350Y0332100D03*
X0186550Y0331300D03*
X0180950Y0330900D03*
X0179750Y0331900D03*
D48*
X0185350Y0332400D03*
X0190450Y0330900D03*
X0194750Y0332400D03*
X0195350Y0335400D03*
X0195450Y0335500D03*
X0195450Y0335600D03*
X0181250Y0340700D03*
X0181050Y0340400D03*
X0180950Y0340300D03*
X0180850Y0340100D03*
X0180750Y0340000D03*
X0180650Y0339800D03*
X0180550Y0339700D03*
X0180450Y0339500D03*
D49*
X0181000Y0331000D03*
D50*
X0185400Y0332500D03*
X0186500Y0331000D03*
X0194800Y0332500D03*
X0195300Y0335200D03*
X0195300Y0335300D03*
X0199200Y0342600D03*
X0181600Y0341100D03*
X0181500Y0341000D03*
X0181400Y0340900D03*
X0181300Y0340800D03*
X0181200Y0340600D03*
X0181100Y0340500D03*
X0180900Y0340200D03*
D51*
X0179950Y0338600D03*
X0179850Y0338400D03*
X0179750Y0338200D03*
X0179550Y0337700D03*
X0179450Y0337500D03*
X0179450Y0337400D03*
X0179350Y0337200D03*
X0179350Y0337100D03*
X0179250Y0336900D03*
X0179250Y0336800D03*
X0179150Y0336600D03*
X0179150Y0336500D03*
X0179150Y0336400D03*
X0179050Y0336200D03*
X0179050Y0336100D03*
X0179050Y0336000D03*
X0178950Y0335800D03*
X0178950Y0335700D03*
X0178950Y0335600D03*
X0178950Y0335500D03*
X0178950Y0335400D03*
X0178950Y0335300D03*
X0178850Y0335000D03*
X0178850Y0334900D03*
X0178850Y0334800D03*
X0178850Y0334700D03*
X0178850Y0334600D03*
X0178850Y0334500D03*
X0178850Y0334400D03*
X0178850Y0334300D03*
X0178850Y0334200D03*
X0178850Y0334100D03*
X0178850Y0334000D03*
X0178850Y0333900D03*
X0178850Y0333800D03*
X0178850Y0333700D03*
X0178950Y0333500D03*
X0178950Y0333400D03*
X0178950Y0333300D03*
X0178950Y0333200D03*
X0179050Y0333100D03*
X0179050Y0333000D03*
X0179050Y0332900D03*
X0179150Y0332700D03*
X0185350Y0332300D03*
X0186550Y0331100D03*
X0190550Y0331000D03*
D52*
X0190050Y0337100D03*
X0181050Y0331100D03*
D53*
X0181000Y0331200D03*
D54*
X0179550Y0332100D03*
X0179450Y0332200D03*
X0185350Y0332200D03*
X0186550Y0331200D03*
X0194650Y0332200D03*
X0187750Y0345400D03*
D55*
X0190650Y0331200D03*
D56*
X0181050Y0331300D03*
D57*
X0190750Y0331300D03*
X0187550Y0345200D03*
D58*
X0188800Y0331400D03*
D59*
X0181050Y0331500D03*
D60*
X0188850Y0331500D03*
D61*
X0181050Y0331600D03*
D62*
X0187900Y0331600D03*
D63*
X0185400Y0332000D03*
X0180100Y0331700D03*
D64*
X0187700Y0331700D03*
D65*
X0194600Y0332100D03*
X0179900Y0331800D03*
X0187700Y0345300D03*
D66*
X0186900Y0331800D03*
D67*
X0186950Y0331900D03*
D68*
X0193250Y0332000D03*
X0187150Y0341500D03*
X0188650Y0342900D03*
X0189050Y0345000D03*
D69*
X0194700Y0332300D03*
X0179400Y0332300D03*
X0179300Y0332400D03*
X0179300Y0332500D03*
X0179200Y0332600D03*
X0179100Y0332800D03*
D70*
X0185850Y0333800D03*
X0185850Y0333900D03*
X0185950Y0334000D03*
X0185950Y0334100D03*
X0186050Y0334300D03*
X0189450Y0332300D03*
X0189550Y0332400D03*
X0191050Y0336700D03*
X0189150Y0337200D03*
X0187650Y0342300D03*
X0187750Y0342400D03*
X0185850Y0344800D03*
X0185650Y0344700D03*
X0185450Y0344600D03*
X0184950Y0344300D03*
X0184650Y0344100D03*
X0184550Y0344000D03*
X0184350Y0343900D03*
X0184250Y0343800D03*
X0194950Y0334300D03*
X0194950Y0333100D03*
X0194950Y0333000D03*
X0194950Y0332900D03*
D71*
X0196650Y0335700D03*
X0196750Y0335800D03*
X0196850Y0335900D03*
X0189450Y0337500D03*
X0188950Y0343200D03*
X0189050Y0343300D03*
X0189350Y0344500D03*
X0189350Y0344600D03*
X0189250Y0344800D03*
X0200150Y0343900D03*
D72*
X0189700Y0336800D03*
D73*
X0189850Y0336900D03*
D74*
X0189950Y0337000D03*
D75*
X0199100Y0339400D03*
X0199200Y0339600D03*
X0199300Y0339800D03*
X0199400Y0340000D03*
X0199500Y0340200D03*
X0199600Y0340400D03*
X0199700Y0340600D03*
X0199700Y0340700D03*
X0199800Y0340800D03*
X0199800Y0340900D03*
X0199900Y0341000D03*
X0199900Y0341100D03*
X0200000Y0341300D03*
X0200000Y0341400D03*
X0200100Y0341500D03*
X0200100Y0341600D03*
X0200200Y0341800D03*
X0200200Y0341900D03*
X0200300Y0342100D03*
X0200300Y0342200D03*
X0200300Y0342300D03*
D76*
X0187050Y0341300D03*
D77*
X0187100Y0341400D03*
X0188900Y0343100D03*
X0189300Y0344700D03*
D78*
X0189150Y0344900D03*
X0188750Y0343000D03*
D79*
X0187500Y0345100D03*
D80*
X0155921Y0299302D02*
X0156806Y0298417D01*
X0156806Y0296647D01*
X0155921Y0295762D01*
X0154150Y0295762D02*
X0153265Y0297532D01*
X0153265Y0298417D01*
X0154150Y0299302D01*
X0155921Y0299302D01*
X0154150Y0295762D02*
X0151495Y0295762D01*
X0151495Y0299302D01*
X0151495Y0293865D02*
X0151495Y0292095D01*
X0151495Y0292980D02*
X0155921Y0292980D01*
X0156806Y0292095D01*
X0156806Y0291210D01*
X0155921Y0290325D01*
X0095986Y0288811D02*
X0093486Y0286311D01*
X0088486Y0286311D01*
X0085986Y0288811D01*
X0085986Y0293811D01*
X0088486Y0296311D01*
X0085986Y0298811D01*
X0085986Y0303811D01*
X0088486Y0306311D01*
X0093486Y0306311D01*
X0095986Y0303811D01*
X0095986Y0298811D01*
X0093486Y0296311D01*
X0095986Y0293811D01*
X0095986Y0288811D01*
X0093486Y0286311D02*
X0095986Y0283811D01*
X0095986Y0278811D01*
X0093486Y0276311D01*
X0095986Y0273811D01*
X0095986Y0268811D01*
X0093486Y0266311D01*
X0095986Y0263811D01*
X0095986Y0258811D01*
X0093486Y0256311D01*
X0088486Y0256311D01*
X0085986Y0258811D01*
X0085986Y0263811D01*
X0088486Y0266311D01*
X0085986Y0268811D01*
X0085986Y0273811D01*
X0088486Y0276311D01*
X0085986Y0278811D01*
X0085986Y0283811D01*
X0088486Y0286311D01*
X0088486Y0276311D02*
X0093486Y0276311D01*
X0093486Y0266311D02*
X0088486Y0266311D01*
X0088486Y0256311D02*
X0085986Y0253811D01*
X0085986Y0248811D01*
X0088486Y0246311D01*
X0085986Y0243811D01*
X0085986Y0238811D01*
X0088486Y0236311D01*
X0085986Y0233811D01*
X0085986Y0228811D01*
X0088486Y0226311D01*
X0093486Y0226311D01*
X0095986Y0228811D01*
X0095986Y0233811D01*
X0093486Y0236311D01*
X0088486Y0236311D01*
X0093486Y0236311D02*
X0095986Y0238811D01*
X0095986Y0243811D01*
X0093486Y0246311D01*
X0088486Y0246311D01*
X0093486Y0246311D02*
X0095986Y0248811D01*
X0095986Y0253811D01*
X0093486Y0256311D01*
X0093486Y0215987D02*
X0088486Y0215987D01*
X0085986Y0213487D01*
X0085986Y0208487D01*
X0088486Y0205987D01*
X0085986Y0203487D01*
X0085986Y0198487D01*
X0088486Y0195987D01*
X0093486Y0195987D01*
X0095986Y0198487D01*
X0095986Y0203487D01*
X0093486Y0205987D01*
X0088486Y0205987D01*
X0093486Y0205987D02*
X0095986Y0208487D01*
X0095986Y0213487D01*
X0093486Y0215987D01*
X0093486Y0195987D02*
X0095986Y0193487D01*
X0095986Y0188487D01*
X0093486Y0185987D01*
X0095986Y0183487D01*
X0095986Y0178487D01*
X0093486Y0175987D01*
X0095986Y0173487D01*
X0095986Y0168487D01*
X0093486Y0165987D01*
X0088486Y0165987D01*
X0085986Y0168487D01*
X0085986Y0173487D01*
X0088486Y0175987D01*
X0085986Y0178487D01*
X0085986Y0183487D01*
X0088486Y0185987D01*
X0085986Y0188487D01*
X0085986Y0193487D01*
X0088486Y0195987D01*
X0088486Y0185987D02*
X0093486Y0185987D01*
X0093486Y0175987D02*
X0088486Y0175987D01*
X0088486Y0165987D02*
X0085986Y0163487D01*
X0085986Y0158487D01*
X0088486Y0155987D01*
X0085986Y0153487D01*
X0085986Y0148487D01*
X0088486Y0145987D01*
X0085986Y0143487D01*
X0085986Y0138487D01*
X0088486Y0135987D01*
X0093486Y0135987D01*
X0095986Y0138487D01*
X0095986Y0143487D01*
X0093486Y0145987D01*
X0088486Y0145987D01*
X0093486Y0145987D02*
X0095986Y0148487D01*
X0095986Y0153487D01*
X0093486Y0155987D01*
X0088486Y0155987D01*
X0093486Y0155987D02*
X0095986Y0158487D01*
X0095986Y0163487D01*
X0093486Y0165987D01*
X0093819Y0125663D02*
X0088819Y0125663D01*
X0086319Y0123163D01*
X0086319Y0118163D01*
X0088819Y0115663D01*
X0086319Y0113163D01*
X0086319Y0108163D01*
X0088819Y0105663D01*
X0093819Y0105663D01*
X0096319Y0108163D01*
X0096319Y0113163D01*
X0093819Y0115663D01*
X0088819Y0115663D01*
X0093819Y0115663D02*
X0096319Y0118163D01*
X0096319Y0123163D01*
X0093819Y0125663D01*
X0093819Y0105663D02*
X0096319Y0103163D01*
X0096319Y0098163D01*
X0093819Y0095663D01*
X0096319Y0093163D01*
X0096319Y0088163D01*
X0093819Y0085663D01*
X0096319Y0083163D01*
X0096319Y0078163D01*
X0093819Y0075663D01*
X0088819Y0075663D01*
X0086319Y0078163D01*
X0086319Y0083163D01*
X0088819Y0085663D01*
X0086319Y0088163D01*
X0086319Y0093163D01*
X0088819Y0095663D01*
X0086319Y0098163D01*
X0086319Y0103163D01*
X0088819Y0105663D01*
X0088819Y0095663D02*
X0093819Y0095663D01*
X0093819Y0085663D02*
X0088819Y0085663D01*
X0088819Y0075663D02*
X0086319Y0073163D01*
X0086319Y0068163D01*
X0088819Y0065663D01*
X0086319Y0063163D01*
X0086319Y0058163D01*
X0088819Y0055663D01*
X0086319Y0053163D01*
X0086319Y0048163D01*
X0088819Y0045663D01*
X0093819Y0045663D01*
X0096319Y0048163D01*
X0096319Y0053163D01*
X0093819Y0055663D01*
X0088819Y0055663D01*
X0093819Y0055663D02*
X0096319Y0058163D01*
X0096319Y0063163D01*
X0093819Y0065663D01*
X0088819Y0065663D01*
X0093819Y0065663D02*
X0096319Y0068163D01*
X0096319Y0073163D01*
X0093819Y0075663D01*
X0108939Y0045800D02*
X0113939Y0045800D01*
X0116439Y0043300D01*
X0116439Y0028300D01*
X0118939Y0025800D01*
X0123939Y0025800D01*
X0126439Y0028300D01*
X0126439Y0043300D01*
X0128939Y0045800D01*
X0133939Y0045800D01*
X0136439Y0043300D01*
X0136439Y0028300D01*
X0138939Y0025800D01*
X0143939Y0025800D01*
X0146439Y0028300D01*
X0146439Y0043300D01*
X0148939Y0045800D01*
X0153939Y0045800D01*
X0156439Y0043300D01*
X0156439Y0028300D01*
X0158939Y0025800D01*
X0163939Y0025800D01*
X0166439Y0028300D01*
X0166439Y0043300D01*
X0168939Y0045800D01*
X0173939Y0045800D01*
X0176439Y0043300D01*
X0176439Y0028300D01*
X0173939Y0025800D01*
X0168939Y0025800D01*
X0166439Y0028300D01*
X0156439Y0028300D02*
X0153939Y0025800D01*
X0148939Y0025800D01*
X0146439Y0028300D01*
X0136439Y0028300D02*
X0133939Y0025800D01*
X0128939Y0025800D01*
X0126439Y0028300D01*
X0116439Y0028300D02*
X0113939Y0025800D01*
X0108939Y0025800D01*
X0106439Y0028300D01*
X0106439Y0043300D01*
X0108939Y0045800D01*
X0116439Y0043300D02*
X0118939Y0045800D01*
X0123939Y0045800D01*
X0126439Y0043300D01*
X0136439Y0043300D02*
X0138939Y0045800D01*
X0143939Y0045800D01*
X0146439Y0043300D01*
X0156439Y0043300D02*
X0158939Y0045800D01*
X0163939Y0045800D01*
X0166439Y0043300D01*
X0176439Y0043300D02*
X0178939Y0045800D01*
X0183939Y0045800D01*
X0186439Y0043300D01*
X0186439Y0028300D01*
X0183939Y0025800D01*
X0178939Y0025800D01*
X0176439Y0028300D01*
X0186439Y0028300D02*
X0188939Y0025800D01*
X0193939Y0025800D01*
X0196439Y0028300D01*
X0196439Y0043300D01*
X0198939Y0045800D01*
X0203939Y0045800D01*
X0206439Y0043300D01*
X0206439Y0028300D01*
X0203939Y0025800D01*
X0198939Y0025800D01*
X0196439Y0028300D01*
X0206439Y0028300D02*
X0208939Y0025800D01*
X0213939Y0025800D01*
X0216439Y0028300D01*
X0216439Y0043300D01*
X0218939Y0045800D01*
X0223939Y0045800D01*
X0226439Y0043300D01*
X0226439Y0028300D01*
X0223939Y0025800D01*
X0218939Y0025800D01*
X0216439Y0028300D01*
X0226439Y0028300D02*
X0228939Y0025800D01*
X0233939Y0025800D01*
X0236439Y0028300D01*
X0236439Y0043300D01*
X0238939Y0045800D01*
X0243939Y0045800D01*
X0246439Y0043300D01*
X0246439Y0028300D01*
X0243939Y0025800D01*
X0238939Y0025800D01*
X0236439Y0028300D01*
X0246439Y0028300D02*
X0248939Y0025800D01*
X0253939Y0025800D01*
X0256439Y0028300D01*
X0256439Y0043300D01*
X0258939Y0045800D01*
X0263939Y0045800D01*
X0266439Y0043300D01*
X0266439Y0028300D01*
X0263939Y0025800D01*
X0258939Y0025800D01*
X0256439Y0028300D01*
X0266439Y0028300D02*
X0268939Y0025800D01*
X0273939Y0025800D01*
X0276439Y0028300D01*
X0276439Y0043300D01*
X0278939Y0045800D01*
X0283939Y0045800D01*
X0286439Y0043300D01*
X0286439Y0028300D01*
X0283939Y0025800D01*
X0278939Y0025800D01*
X0276439Y0028300D01*
X0276439Y0043300D02*
X0273939Y0045800D01*
X0268939Y0045800D01*
X0266439Y0043300D01*
X0257400Y0050885D02*
X0257400Y0051770D01*
X0256515Y0052655D01*
X0252090Y0052655D01*
X0252090Y0051770D02*
X0252090Y0053540D01*
X0254745Y0055438D02*
X0252090Y0058093D01*
X0257400Y0058093D01*
X0254745Y0058978D02*
X0254745Y0055438D01*
X0257400Y0050885D02*
X0256515Y0050000D01*
X0253939Y0045800D02*
X0256439Y0043300D01*
X0253939Y0045800D02*
X0248939Y0045800D01*
X0246439Y0043300D01*
X0236439Y0043300D02*
X0233939Y0045800D01*
X0228939Y0045800D01*
X0226439Y0043300D01*
X0216439Y0043300D02*
X0213939Y0045800D01*
X0208939Y0045800D01*
X0206439Y0043300D01*
X0196439Y0043300D02*
X0193939Y0045800D01*
X0188939Y0045800D01*
X0186439Y0043300D01*
X0276634Y0068494D02*
X0276634Y0073494D01*
X0279134Y0075994D01*
X0276634Y0078494D01*
X0276634Y0083494D01*
X0279134Y0085994D01*
X0276634Y0088494D01*
X0276634Y0093494D01*
X0279134Y0095994D01*
X0276634Y0098494D01*
X0276634Y0103494D01*
X0279134Y0105994D01*
X0276634Y0108494D01*
X0276634Y0113494D01*
X0279134Y0115994D01*
X0276634Y0118494D01*
X0276634Y0123494D01*
X0279134Y0125994D01*
X0276634Y0128494D01*
X0276634Y0133494D01*
X0279134Y0135994D01*
X0276634Y0138494D01*
X0276634Y0143494D01*
X0279134Y0145994D01*
X0284134Y0145994D01*
X0286634Y0143494D01*
X0286634Y0138494D01*
X0284134Y0135994D01*
X0286634Y0133494D01*
X0286634Y0128494D01*
X0284134Y0125994D01*
X0279134Y0125994D01*
X0284134Y0125994D02*
X0286634Y0123494D01*
X0286634Y0118494D01*
X0284134Y0115994D01*
X0286634Y0113494D01*
X0286634Y0108494D01*
X0284134Y0105994D01*
X0286634Y0103494D01*
X0286634Y0098494D01*
X0284134Y0095994D01*
X0279134Y0095994D01*
X0284134Y0095994D02*
X0286634Y0093494D01*
X0286634Y0088494D01*
X0284134Y0085994D01*
X0286634Y0083494D01*
X0286634Y0078494D01*
X0284134Y0075994D01*
X0286634Y0073494D01*
X0286634Y0068494D01*
X0284134Y0065994D01*
X0279134Y0065994D01*
X0276634Y0068494D01*
X0279134Y0075994D02*
X0284134Y0075994D01*
X0284134Y0085994D02*
X0279134Y0085994D01*
X0279134Y0105994D02*
X0284134Y0105994D01*
X0284134Y0115994D02*
X0279134Y0115994D01*
X0279134Y0135994D02*
X0284134Y0135994D01*
X0284467Y0155985D02*
X0279467Y0155985D01*
X0276967Y0158485D01*
X0276967Y0163485D01*
X0279467Y0165985D01*
X0276967Y0168485D01*
X0276967Y0173485D01*
X0279467Y0175985D01*
X0276967Y0178485D01*
X0276967Y0183485D01*
X0279467Y0185985D01*
X0276967Y0188485D01*
X0276967Y0193485D01*
X0279467Y0195985D01*
X0276967Y0198485D01*
X0276967Y0203485D01*
X0279467Y0205985D01*
X0276967Y0208485D01*
X0276967Y0213485D01*
X0279467Y0215985D01*
X0276967Y0218485D01*
X0276967Y0223485D01*
X0279467Y0225985D01*
X0276967Y0228485D01*
X0276967Y0233485D01*
X0279467Y0235985D01*
X0284467Y0235985D01*
X0286967Y0233485D01*
X0286967Y0228485D01*
X0284467Y0225985D01*
X0286967Y0223485D01*
X0286967Y0218485D01*
X0284467Y0215985D01*
X0279467Y0215985D01*
X0284467Y0215985D02*
X0286967Y0213485D01*
X0286967Y0208485D01*
X0284467Y0205985D01*
X0286967Y0203485D01*
X0286967Y0198485D01*
X0284467Y0195985D01*
X0286967Y0193485D01*
X0286967Y0188485D01*
X0284467Y0185985D01*
X0279467Y0185985D01*
X0284467Y0185985D02*
X0286967Y0183485D01*
X0286967Y0178485D01*
X0284467Y0175985D01*
X0286967Y0173485D01*
X0286967Y0168485D01*
X0284467Y0165985D01*
X0286967Y0163485D01*
X0286967Y0158485D01*
X0284467Y0155985D01*
X0284467Y0165985D02*
X0279467Y0165985D01*
X0279467Y0175985D02*
X0284467Y0175985D01*
X0284467Y0195985D02*
X0279467Y0195985D01*
X0279467Y0205985D02*
X0284467Y0205985D01*
X0284467Y0225985D02*
X0279467Y0225985D01*
X0278800Y0241309D02*
X0276300Y0243809D01*
X0276300Y0248809D01*
X0278800Y0251309D01*
X0276300Y0253809D01*
X0276300Y0258809D01*
X0278800Y0261309D01*
X0276300Y0263809D01*
X0276300Y0268809D01*
X0278800Y0271309D01*
X0276300Y0273809D01*
X0276300Y0278809D01*
X0278800Y0281309D01*
X0276300Y0283809D01*
X0276300Y0288809D01*
X0278800Y0291309D01*
X0276300Y0293809D01*
X0276300Y0298809D01*
X0278800Y0301309D01*
X0276300Y0303809D01*
X0276300Y0308809D01*
X0278800Y0311309D01*
X0276300Y0313809D01*
X0276300Y0318809D01*
X0278800Y0321309D01*
X0276300Y0323809D01*
X0276300Y0328809D01*
X0278800Y0331309D01*
X0276300Y0333809D01*
X0276300Y0338809D01*
X0278800Y0341309D01*
X0283800Y0341309D01*
X0286300Y0338809D01*
X0286300Y0333809D01*
X0283800Y0331309D01*
X0286300Y0328809D01*
X0286300Y0323809D01*
X0283800Y0321309D01*
X0278800Y0321309D01*
X0283800Y0321309D02*
X0286300Y0318809D01*
X0286300Y0313809D01*
X0283800Y0311309D01*
X0286300Y0308809D01*
X0286300Y0303809D01*
X0283800Y0301309D01*
X0286300Y0298809D01*
X0286300Y0293809D01*
X0283800Y0291309D01*
X0278800Y0291309D01*
X0283800Y0291309D02*
X0286300Y0288809D01*
X0286300Y0283809D01*
X0283800Y0281309D01*
X0286300Y0278809D01*
X0286300Y0273809D01*
X0283800Y0271309D01*
X0286300Y0268809D01*
X0286300Y0263809D01*
X0283800Y0261309D01*
X0278800Y0261309D01*
X0283800Y0261309D02*
X0286300Y0258809D01*
X0286300Y0253809D01*
X0283800Y0251309D01*
X0286300Y0248809D01*
X0286300Y0243809D01*
X0283800Y0241309D01*
X0278800Y0241309D01*
X0278800Y0251309D02*
X0283800Y0251309D01*
X0283800Y0271309D02*
X0278800Y0271309D01*
X0278800Y0281309D02*
X0283800Y0281309D01*
X0283800Y0301309D02*
X0278800Y0301309D01*
X0278800Y0311309D02*
X0283800Y0311309D01*
X0283800Y0331309D02*
X0278800Y0331309D01*
X0204143Y0165989D02*
X0199143Y0165989D01*
X0196643Y0163489D01*
X0196643Y0148489D01*
X0199143Y0145989D01*
X0204143Y0145989D01*
X0206643Y0148489D01*
X0206643Y0163489D01*
X0204143Y0165989D01*
X0196643Y0163489D02*
X0194143Y0165989D01*
X0189143Y0165989D01*
X0186643Y0163489D01*
X0186643Y0148489D01*
X0189143Y0145989D01*
X0194143Y0145989D01*
X0196643Y0148489D01*
X0186643Y0148489D02*
X0184143Y0145989D01*
X0179143Y0145989D01*
X0176643Y0148489D01*
X0176643Y0163489D01*
X0179143Y0165989D01*
X0184143Y0165989D01*
X0186643Y0163489D01*
X0057678Y0039025D02*
X0056793Y0039910D01*
X0055023Y0039910D01*
X0054138Y0039025D01*
X0052240Y0039910D02*
X0050470Y0039910D01*
X0051355Y0039910D02*
X0051355Y0035485D01*
X0050470Y0034600D01*
X0049585Y0034600D01*
X0048700Y0035485D01*
X0054138Y0034600D02*
X0057678Y0038140D01*
X0057678Y0039025D01*
X0057678Y0034600D02*
X0054138Y0034600D01*
X0021378Y0034000D02*
X0017838Y0034000D01*
X0019608Y0034000D02*
X0019608Y0039310D01*
X0017838Y0037540D01*
X0015940Y0039310D02*
X0014170Y0039310D01*
X0015055Y0039310D02*
X0015055Y0034885D01*
X0014170Y0034000D01*
X0013285Y0034000D01*
X0012400Y0034885D01*
X0088486Y0296311D02*
X0093486Y0296311D01*
X0337570Y0042910D02*
X0339340Y0042910D01*
X0338455Y0042910D02*
X0338455Y0038485D01*
X0337570Y0037600D01*
X0336685Y0037600D01*
X0335800Y0038485D01*
X0341238Y0038485D02*
X0342123Y0037600D01*
X0343893Y0037600D01*
X0344778Y0038485D01*
X0344778Y0039370D01*
X0343893Y0040255D01*
X0343008Y0040255D01*
X0343893Y0040255D02*
X0344778Y0041140D01*
X0344778Y0042025D01*
X0343893Y0042910D01*
X0342123Y0042910D01*
X0341238Y0042025D01*
D81*
X0343300Y0035100D02*
X0338300Y0035100D01*
X0335800Y0032600D01*
X0335800Y0027600D01*
X0338300Y0025100D01*
X0343300Y0025100D01*
X0345800Y0027600D01*
X0348300Y0025100D01*
X0353300Y0025100D01*
X0355800Y0027600D01*
X0355800Y0032600D01*
X0353300Y0035100D01*
X0348300Y0035100D01*
X0345800Y0032600D01*
X0343300Y0035100D01*
X0269900Y0052500D02*
X0269900Y0057500D01*
X0267400Y0060000D01*
X0269900Y0062500D01*
X0269900Y0067500D01*
X0267400Y0070000D01*
X0262400Y0070000D01*
X0259900Y0067500D01*
X0259900Y0062500D01*
X0262400Y0060000D01*
X0259900Y0057500D01*
X0259900Y0052500D01*
X0262400Y0050000D01*
X0267400Y0050000D01*
X0269900Y0052500D01*
X0347806Y0141895D02*
X0353317Y0141895D01*
X0353317Y0146620D01*
X0353317Y0211580D02*
X0353317Y0216305D01*
X0347806Y0216305D01*
X0335994Y0216305D02*
X0334420Y0216305D01*
X0149000Y0283100D02*
X0146500Y0280600D01*
X0141500Y0280600D01*
X0139000Y0283100D01*
X0139000Y0288100D01*
X0141500Y0290600D01*
X0139000Y0293100D01*
X0139000Y0298100D01*
X0141500Y0300600D01*
X0146500Y0300600D01*
X0149000Y0298100D01*
X0149000Y0293100D01*
X0146500Y0290600D01*
X0149000Y0288100D01*
X0149000Y0283100D01*
X0023702Y0216072D02*
X0018190Y0216072D01*
X0018190Y0211348D01*
X0018190Y0146387D02*
X0018190Y0141663D01*
X0023702Y0141663D01*
X0035513Y0141663D02*
X0037087Y0141663D01*
X0051200Y0032100D02*
X0048700Y0029600D01*
X0048700Y0024600D01*
X0051200Y0022100D01*
X0056200Y0022100D01*
X0058700Y0024600D01*
X0061200Y0022100D01*
X0066200Y0022100D01*
X0068700Y0024600D01*
X0068700Y0029600D01*
X0066200Y0032100D01*
X0061200Y0032100D01*
X0058700Y0029600D01*
X0056200Y0032100D01*
X0051200Y0032100D01*
X0032400Y0029000D02*
X0032400Y0024000D01*
X0029900Y0021500D01*
X0024900Y0021500D01*
X0022400Y0024000D01*
X0019900Y0021500D01*
X0014900Y0021500D01*
X0012400Y0024000D01*
X0012400Y0029000D01*
X0014900Y0031500D01*
X0019900Y0031500D01*
X0022400Y0029000D01*
X0024900Y0031500D01*
X0029900Y0031500D01*
X0032400Y0029000D01*
M02*
