G75*
%MOIN*%
%OFA0B0*%
%FSLAX25Y25*%
%IPPOS*%
%LPD*%
%AMOC8*
5,1,8,0,0,1.08239X$1,22.5*
%
%ADD10C,0.07200*%
%ADD11OC8,0.07200*%
%ADD12R,0.05512X0.01575*%
%ADD13R,0.09252X0.07480*%
%ADD14C,0.08200*%
D10*
X0088119Y0050663D02*
X0094519Y0050663D01*
X0094519Y0060663D02*
X0088119Y0060663D01*
X0088119Y0070663D02*
X0094519Y0070663D01*
X0094519Y0080663D02*
X0088119Y0080663D01*
X0088119Y0090663D02*
X0094519Y0090663D01*
X0094519Y0100663D02*
X0088119Y0100663D01*
X0088119Y0110663D02*
X0094519Y0110663D01*
X0094519Y0120663D02*
X0088119Y0120663D01*
X0087786Y0140987D02*
X0094186Y0140987D01*
X0094186Y0150987D02*
X0087786Y0150987D01*
X0087786Y0160987D02*
X0094186Y0160987D01*
X0094186Y0170987D02*
X0087786Y0170987D01*
X0087786Y0180987D02*
X0094186Y0180987D01*
X0094186Y0190987D02*
X0087786Y0190987D01*
X0087786Y0200987D02*
X0094186Y0200987D01*
X0094186Y0210987D02*
X0087786Y0210987D01*
X0087786Y0231311D02*
X0094186Y0231311D01*
X0094186Y0241311D02*
X0087786Y0241311D01*
X0087786Y0251311D02*
X0094186Y0251311D01*
X0094186Y0261311D02*
X0087786Y0261311D01*
X0087786Y0271311D02*
X0094186Y0271311D01*
X0094186Y0281311D02*
X0087786Y0281311D01*
X0087786Y0291311D02*
X0094186Y0291311D01*
X0094186Y0301311D02*
X0087786Y0301311D01*
X0278100Y0306309D02*
X0284500Y0306309D01*
X0284500Y0316309D02*
X0278100Y0316309D01*
X0278100Y0326309D02*
X0284500Y0326309D01*
X0284500Y0336309D02*
X0278100Y0336309D01*
X0278100Y0296309D02*
X0284500Y0296309D01*
X0284500Y0286309D02*
X0278100Y0286309D01*
X0278100Y0276309D02*
X0284500Y0276309D01*
X0284500Y0266309D02*
X0278100Y0266309D01*
X0278100Y0256309D02*
X0284500Y0256309D01*
X0284500Y0246309D02*
X0278100Y0246309D01*
X0278767Y0230985D02*
X0285167Y0230985D01*
X0285167Y0220985D02*
X0278767Y0220985D01*
X0278767Y0210985D02*
X0285167Y0210985D01*
X0285167Y0200985D02*
X0278767Y0200985D01*
X0278767Y0190985D02*
X0285167Y0190985D01*
X0285167Y0180985D02*
X0278767Y0180985D01*
X0278767Y0170985D02*
X0285167Y0170985D01*
X0285167Y0160985D02*
X0278767Y0160985D01*
X0278434Y0140994D02*
X0284834Y0140994D01*
X0284834Y0130994D02*
X0278434Y0130994D01*
X0278434Y0120994D02*
X0284834Y0120994D01*
X0284834Y0110994D02*
X0278434Y0110994D01*
X0278434Y0100994D02*
X0284834Y0100994D01*
X0284834Y0090994D02*
X0278434Y0090994D01*
X0278434Y0080994D02*
X0284834Y0080994D01*
X0284834Y0070994D02*
X0278434Y0070994D01*
D11*
X0281439Y0040800D03*
X0271439Y0040800D03*
X0261439Y0040800D03*
X0251439Y0040800D03*
X0241439Y0040800D03*
X0231439Y0040800D03*
X0221439Y0040800D03*
X0211439Y0040800D03*
X0201439Y0040800D03*
X0191439Y0040800D03*
X0181439Y0040800D03*
X0171439Y0040800D03*
X0161439Y0040800D03*
X0151439Y0040800D03*
X0141439Y0040800D03*
X0131439Y0040800D03*
X0121439Y0040800D03*
X0111439Y0040800D03*
X0111439Y0030800D03*
X0121439Y0030800D03*
X0131439Y0030800D03*
X0141439Y0030800D03*
X0151439Y0030800D03*
X0161439Y0030800D03*
X0171439Y0030800D03*
X0181439Y0030800D03*
X0191439Y0030800D03*
X0201439Y0030800D03*
X0211439Y0030800D03*
X0221439Y0030800D03*
X0231439Y0030800D03*
X0241439Y0030800D03*
X0251439Y0030800D03*
X0261439Y0030800D03*
X0271439Y0030800D03*
X0281439Y0030800D03*
X0201643Y0150989D03*
X0201643Y0160989D03*
X0191643Y0160989D03*
X0191643Y0150989D03*
X0181643Y0150989D03*
X0181643Y0160989D03*
D12*
X0016812Y0160167D03*
X0016812Y0162135D03*
X0016812Y0164104D03*
X0016812Y0166072D03*
X0016812Y0168041D03*
X0016812Y0170009D03*
X0016812Y0171978D03*
X0016812Y0173946D03*
X0016812Y0175915D03*
X0016812Y0177883D03*
X0016812Y0179852D03*
X0016812Y0181820D03*
X0016812Y0183789D03*
X0016812Y0185757D03*
X0016812Y0187726D03*
X0016812Y0189694D03*
X0016812Y0191663D03*
X0016812Y0193631D03*
X0016812Y0195600D03*
X0016812Y0197569D03*
X0016812Y0199537D03*
X0016812Y0201506D03*
X0016812Y0203474D03*
X0016812Y0205443D03*
X0016812Y0207411D03*
X0016812Y0209380D03*
X0016812Y0158198D03*
X0016812Y0156230D03*
X0016812Y0154261D03*
X0016812Y0152293D03*
X0016812Y0150324D03*
X0016812Y0148356D03*
X0354695Y0148588D03*
X0354695Y0150557D03*
X0354695Y0152525D03*
X0354695Y0154494D03*
X0354695Y0156462D03*
X0354695Y0158431D03*
X0354695Y0160399D03*
X0354695Y0162368D03*
X0354695Y0164336D03*
X0354695Y0166305D03*
X0354695Y0168273D03*
X0354695Y0170242D03*
X0354695Y0172210D03*
X0354695Y0174179D03*
X0354695Y0176147D03*
X0354695Y0178116D03*
X0354695Y0180084D03*
X0354695Y0182053D03*
X0354695Y0184021D03*
X0354695Y0185990D03*
X0354695Y0187958D03*
X0354695Y0189927D03*
X0354695Y0191895D03*
X0354695Y0193864D03*
X0354695Y0195832D03*
X0354695Y0197801D03*
X0354695Y0199769D03*
X0354695Y0201738D03*
X0354695Y0203706D03*
X0354695Y0205675D03*
X0354695Y0207643D03*
X0354695Y0209612D03*
D13*
X0341900Y0215714D03*
X0341900Y0142486D03*
X0029607Y0142254D03*
X0029607Y0215482D03*
D14*
X0017400Y0026500D03*
X0027400Y0026500D03*
X0053700Y0027100D03*
X0063700Y0027100D03*
X0264900Y0055000D03*
X0264900Y0065000D03*
X0340800Y0030100D03*
X0350800Y0030100D03*
X0144000Y0285600D03*
X0144000Y0295600D03*
M02*
